<?xml version="1.0" encoding="UTF-8" standalone="no"?>
<!-- Created with Inkscape (http://www.inkscape.org/) -->

<svg
   width="210mm"
   height="297mm"
   viewBox="0 0 210 297"
   version="1.1"
   id="svg1"
   xml:space="preserve"
   inkscape:version="1.4.3 (0d15f75, 2025-12-25)"
   sodipodi:docname="icon2.svg"
   xmlns:inkscape="http://www.inkscape.org/namespaces/inkscape"
   xmlns:sodipodi="http://sodipodi.sourceforge.net/DTD/sodipodi-0.dtd"
   xmlns="http://www.w3.org/2000/svg"
   xmlns:svg="http://www.w3.org/2000/svg"><sodipodi:namedview
     id="namedview1"
     pagecolor="#ffffff"
     bordercolor="#000000"
     borderopacity="0.25"
     inkscape:showpageshadow="2"
     inkscape:pageopacity="0.0"
     inkscape:pagecheckerboard="0"
     inkscape:deskcolor="#d1d1d1"
     inkscape:document-units="mm"
     inkscape:zoom="0.71891835"
     inkscape:cx="395.7334"
     inkscape:cy="537.61321"
     inkscape:window-width="1920"
     inkscape:window-height="1009"
     inkscape:window-x="-8"
     inkscape:window-y="-8"
     inkscape:window-maximized="1"
     inkscape:current-layer="layer1" /><defs
     id="defs1" /><g
     inkscape:label="Capa 1"
     inkscape:groupmode="layer"
     id="layer1"><g
       id="g2421"
       style="display:inline"><path
         style="fill:#fefefe"
         d="M -0.31430659,106.40631 V 0.57297635 H 104.41494 209.14419 V 106.40631 212.23965 H 104.41494 -0.31430659 Z"
         id="path2425" /><path
         style="fill:#c7ddf3"
         d="m 153.63769,188.69493 c -3.0233,-0.66335 -3.82453,-0.88565 -5.56729,-1.54457 -5.2927,-2.00113 -10.62281,-5.92232 -14.08087,-10.35883 l -1.64962,-2.11637 -52.541178,-0.0693 c -38.507856,-0.0508 -52.639336,-0.149 -52.908675,-0.36766 -0.202122,-0.1641 -0.662045,-0.38711 -1.022052,-0.49559 -2.964815,-0.89337 -6.312735,-4.98809 -7.222902,-8.83406 -0.511105,-2.15971 -0.522073,-114.459638 -0.01141,-116.842844 0.829792,-3.872552 3.281854,-6.997487 6.888077,-8.778239 l 2.048087,-1.011345 h 64.565218 c 53.796705,0 64.691915,0.05984 65.324865,0.358784 3.50096,1.653505 4.91133,2.787165 6.43899,5.175668 2.0661,3.230351 1.898,-0.219359 2.04444,41.954648 0.13004,37.446058 0.13444,37.700048 0.65456,37.778328 3.41744,0.5143 8.97096,3.05045 12.56751,5.73924 6.28353,4.69757 10.56938,11.26027 12.62017,19.32458 0.71696,2.81932 0.65795,12.41679 -0.0935,15.21355 -3.47058,12.91612 -13.39076,22.45058 -25.89249,24.88573 -2.82021,0.54934 -9.63479,0.54278 -12.16188,-0.0117 z M 127.7247,164.28392 c -1.09433,-4.40691 -1.41312,-9.70402 -0.77902,-12.9444 0.71015,-3.629 1.46707,-6.46973 2.06748,-7.75925 0.13551,-0.29104 0.49715,-1.10745 0.80363,-1.81424 1.80283,-4.15754 6.14367,-9.49598 10.07518,-12.39064 1.15203,-0.8482 2.21241,-1.63422 2.35641,-1.74671 0.63383,-0.49515 5.36866,-2.70994 6.67649,-3.12303 0.79202,-0.25016 1.67567,-0.54348 1.96368,-0.65182 0.94334,-0.35484 4.57657,-1.04335 5.50572,-1.04335 h 0.90894 V 101.11465 79.418812 H 92.106096 26.908981 l 0.06861,42.134898 0.06861,42.1349 0.654558,0.76287 c 1.620838,1.88907 -2.837644,1.73838 51.624706,1.74486 l 48.875565,0.006 z M 51.199392,152.14226 c -1.237677,-1.01868 -1.228408,-1.12762 0.130912,-1.53869 2.875999,-0.86972 9.622,-5.3278 9.622,-6.35867 0,-0.11499 -1.148749,-0.89922 -2.552776,-1.74274 -3.479666,-2.09053 -3.414532,-2.01721 -2.65454,-2.98829 0.806111,-1.03 0.528009,-1.09209 3.936429,0.87884 l 2.952393,1.70723 0.482217,-0.71504 c 0.687816,-1.01992 2.286877,-4.21927 2.69948,-5.40104 l 0.350031,-1.00255 h -4.659476 -4.659476 l -1.670221,1.98262 c -1.622818,1.92635 -4.474148,4.52645 -5.478736,4.99602 -0.364521,0.17038 -0.704176,0.0653 -1.282579,-0.39688 -1.031098,-0.82387 -1.023765,-0.85579 0.427934,-1.8627 2.935426,-2.03603 6.830143,-6.78075 7.896697,-9.6201 0.574697,-1.52994 0.611239,-1.55423 1.773216,-1.17878 1.478364,0.47768 1.507959,0.58874 0.593309,2.2265 l -0.839449,1.5031 4.696955,-0.0482 c 4.623911,-0.0474 6.366931,0.23353 6.366931,1.02633 0,0.66114 -2.227279,5.95911 -3.261145,7.7572 -0.674488,1.17307 -1.188676,2.16155 -1.142639,2.19661 0.04604,0.0351 0.646856,0.4484 1.335155,0.91852 l 1.251452,0.85475 -0.816248,1.04146 c -0.482999,0.61627 -0.940483,0.96586 -1.120541,0.85629 -0.167361,-0.10185 -0.762354,-0.51808 -1.322208,-0.92496 l -1.017916,-0.73977 -1.733866,1.6513 c -1.985083,1.89055 -3.821292,3.17151 -6.441404,4.49359 -2.659251,1.34182 -2.740694,1.35085 -3.861891,0.42803 z m 56.099408,-0.0914 c -1.04678,-1.09139 -1.12143,-0.97413 1.1744,-1.84489 6.1066,-2.31611 12.06829,-8.7235 13.11942,-14.10022 l 0.1681,-0.85989 -4.54917,0.009 -4.54918,0.009 -1.44024,1.76512 c -1.40202,1.71827 -5.12003,5.09321 -5.61278,5.09486 -0.31225,0.001 -1.9757,-1.13579 -1.97809,-1.35186 -9.8e-4,-0.0891 0.80883,-0.77119 1.79958,-1.51569 3.06423,-2.30261 5.84854,-5.79884 7.15671,-8.98664 0.62359,-1.51959 0.74859,-1.5566 2.5823,-0.76453 l 0.73254,0.31642 -0.9,1.53317 c -0.495,0.84324 -0.89999,1.59673 -0.89999,1.67443 0,0.0777 2.1661,0.10922 4.81355,0.0701 4.18177,-0.0618 4.90343,-0.0117 5.49829,0.3822 0.82985,0.54947 0.84486,0.20479 -0.13066,2.99979 -2.5915,7.42496 -6.55837,12.08936 -12.93033,15.20399 -3.13189,1.53087 -2.95208,1.51467 -4.05445,0.36532 z m -30.76518,-0.66248 -1.013231,-1.04858 1.028842,-0.42972 c 4.117606,-1.7198 9.725057,-6.42057 12.383735,-10.38138 1.107769,-1.65031 2.652643,-4.62076 2.652643,-5.10042 0,-0.22321 -1.801031,-0.2756 -6.807402,-0.19801 l -6.807401,0.10549 v -1.26474 -1.26475 h 7.571457 c 4.164301,0 7.728368,-0.0597 7.920149,-0.13258 0.191781,-0.0729 0.687778,0.14233 1.102216,0.47834 l 0.753523,0.61093 -1.332585,2.7628 c -0.732921,1.51954 -1.909684,3.64801 -2.615028,4.72993 l -1.282444,1.96713 3.489843,3.53684 c 1.919413,1.94527 3.725281,3.87098 4.013039,4.27936 l 0.523198,0.74251 -1.062248,0.86264 -1.062247,0.86265 -0.827464,-1.02328 c -1.674718,-2.07103 -5.194899,-5.91803 -5.992396,-6.54875 l -0.821315,-0.64955 -2.112427,1.98506 c -2.424615,2.27841 -4.554257,3.86983 -6.98674,5.22099 L 77.54685,152.437 Z m 12.106478,-34.31834 -5.432829,-0.0912 v -9.25505 c 0,-9.078659 0.01,-9.255048 0.523646,-9.255048 0.513067,0 0.523646,0.176389 0.523646,8.731248 v 8.73125 h 6.807401 c 6.632853,0 6.807401,0.0136 6.807401,0.52917 0,0.37169 -0.175307,0.52985 -0.589102,0.53147 -0.324006,0.001 -1.178204,0.0399 -1.898217,0.0858 -0.720014,0.0459 -3.753889,0.0425 -6.741946,-0.008 z m -35.155089,-0.39595 c -0.07406,-0.19505 -0.103164,-3.4483 -0.06466,-7.22945 0.06796,-6.67486 0.08523,-6.87483 0.593646,-6.87483 0.765472,0 0.829466,14.22074 0.06466,14.36958 -0.25244,0.0491 -0.519581,-0.0703 -0.593646,-0.2653 z m 2.28647,10e-4 c -0.335251,-0.33878 -0.480184,-12.97234 -0.158537,-13.81937 0.08741,-0.23019 0.383852,-0.41852 0.658766,-0.41852 0.481351,0 0.497264,0.26591 0.430178,7.18797 -0.06891,7.11056 -0.163226,7.82519 -0.930407,7.04992 z m 16.736765,-0.0392 c -0.221426,-0.26962 -0.285827,-2.7846 -0.235663,-9.20308 l 0.06903,-8.832086 0.592516,-0.085 0.592516,-0.085 -0.06887,9.191156 c -0.06875,9.17492 -0.153855,9.98284 -0.949529,9.01401 z m 2.124318,0.17699 c -0.345235,-0.13955 -0.503979,-17.042094 -0.168356,-17.925933 0.08741,-0.230183 0.383486,-0.418515 0.657951,-0.418515 0.482548,0 0.496753,0.302892 0.430178,9.172298 -0.06781,9.03424 -0.114291,9.49774 -0.919773,9.17215 z m 28.909638,0 c -0.41538,-0.41976 -0.19324,-18.089225 0.22948,-18.253146 0.65698,-0.254765 0.65644,-0.261699 0.69349,8.955216 0.037,9.20626 -0.0588,10.17123 -0.92297,9.29793 z m 2.06323,-0.0681 c -0.29476,-0.48196 -0.42191,-7.13761 -0.24427,-12.78623 0.16137,-5.131014 0.2048,-5.490108 0.66391,-5.490108 0.47232,0 0.48859,0.353336 0.42239,9.172298 -0.0664,8.84343 -0.18921,10.17147 -0.84203,9.10404 z m 8.93879,0.0736 c -0.099,-0.10005 -0.18,-4.26971 -0.18,-9.26593 v -9.084028 l 1.76731,0.0078 1.7673,0.0078 1.75104,2.704178 c 0.96307,1.48729 3.29002,5.01006 5.17101,7.82836 l 3.41997,5.12419 v -7.00935 c 0,-7.793365 0.0825,-8.662987 0.82159,-8.662987 0.47637,0 0.49181,0.333701 0.42546,9.194267 l -0.0688,9.19427 -1.39583,0.0807 c -1.62624,0.094 -1.82534,-0.0361 -3.12778,-2.04494 -0.52612,-0.81145 -1.01955,-1.53489 -1.09654,-1.60765 -0.077,-0.0728 -0.96266,-1.38245 -1.96817,-2.91042 -1.00552,-1.52797 -1.89353,-2.83765 -1.97335,-2.91041 -0.0798,-0.0728 -0.52059,-0.72761 -0.97949,-1.45521 -0.45891,-0.72761 -0.92783,-1.44198 -1.04204,-1.5875 -0.11422,-0.14552 -0.67696,-0.97896 -1.25055,-1.85209 l -1.04288,-1.5875 -0.13091,7.91564 c -0.12421,7.51041 -0.23869,8.556 -0.86729,7.92078 z m 12.98771,-1.61506 c -0.25254,-0.40018 -0.90936,-1.38245 -1.45959,-2.18281 -0.55023,-0.80037 -2.78665,-4.16388 -4.96981,-7.47448 -2.70957,-4.10885 -4.11796,-6.019275 -4.43747,-6.019275 -0.72505,0 -1.4661,-1.192214 8.67517,13.956775 1.11937,1.67211 1.79874,2.44739 2.14462,2.44739 0.48903,0 0.49063,-0.0247 0.0471,-0.7276 z m -40.32449,-0.36297 c -0.872154,-0.88135 -0.123518,-1.02609 5.30711,-1.02609 5.362981,0 6.020604,0.11535 5.345295,0.93763 -0.405048,0.4932 -10.171631,0.5743 -10.652405,0.0885 z m -1.770293,-1.28351 c -0.374079,-0.61166 -0.455552,-3.356 -0.270187,-9.10101 0.182043,-5.642053 0.22194,-5.987408 0.691701,-5.987408 0.480161,0 0.495958,0.279262 0.429045,7.584828 -0.0669,7.30374 -0.208543,8.55334 -0.850559,7.50359 z M 43.933801,100.98739 c 0,-0.64813 0.735454,-0.68408 12.43306,-0.60769 10.477427,0.0684 11.260948,0.10547 11.343048,0.53651 0.08295,0.4355 -0.620958,0.46302 -11.843958,0.46302 -10.363583,0 -11.93215,-0.0515 -11.93215,-0.39184 z m 0,-2.106146 c 0,-0.481468 3.005921,-0.574594 15.120285,-0.468437 7.427894,0.06509 8.705619,0.133047 8.705619,0.463021 0,0.33359 -1.637042,0.386734 -11.912952,0.386734 -10.198726,0 -11.912952,-0.05487 -11.912952,-0.381318 z m 41.760787,-6.020261 c -0.288005,-0.16504 -0.582556,-0.373895 -0.654557,-0.464124 -0.072,-0.09023 -0.808379,-0.612784 -1.636395,-1.161234 -1.007755,-0.667504 -1.505483,-1.173349 -1.505483,-1.530036 0,-0.676858 0.66454,-0.495612 2.191101,0.597598 2.544526,1.8222 1.927192,1.777799 4.424037,0.318199 0.288654,-0.168741 0.597275,-0.406866 0.685823,-0.529167 0.461876,-0.63793 1.866906,-1.181002 2.019029,-0.780395 0.226012,0.595186 0.02662,0.798388 -2.354187,2.399226 -2.355823,1.584036 -2.390114,1.596478 -3.169368,1.149933 z m -1.896564,-3.610291 c -2.042684,-1.41723 -2.47596,-1.931459 -1.919971,-2.278702 0.259103,-0.161822 1.612301,0.568698 3.266717,1.763528 1.297043,0.936734 1.162138,0.956422 3.354029,-0.489491 2.003045,-1.321338 2.625948,-1.51953 2.758391,-0.87765 0.09407,0.45591 -4.203921,3.444322 -4.895224,3.40367 -0.223055,-0.01312 -1.376829,-0.697727 -2.563942,-1.521355 z m 0.79489,-1.777408 c -1.498956,-1.097802 -1.961087,-1.969056 -1.044427,-1.969056 0.323779,0 2.362002,-1.350793 2.495199,-1.653645 0.115928,-0.263588 0.762158,-0.254662 0.872744,0.01205 0.048,0.11577 0.705831,0.612072 1.461845,1.102893 1.225544,0.795649 1.873415,1.861615 1.13145,1.861615 -0.133717,0 -0.398812,0.152517 -0.589102,0.338927 -0.421265,0.412676 -2.269273,1.516179 -2.520987,1.505359 -0.09977,-0.0043 -0.912796,-0.543455 -1.806722,-1.198147 z m 2.841244,-0.7218 0.692278,-0.585797 -0.823555,-0.539457 -0.823554,-0.539457 -0.850852,0.579433 -0.850851,0.579434 0.851217,0.550879 c 1.035759,0.670308 0.957645,0.672256 1.805317,-0.04503 z"
         id="path2424" /><path
         style="fill:#719eb9"
         d="m 155.20863,188.79322 c -9.30952,-1.74873 -16.52028,-5.98543 -21.44467,-12.59985 l -1.13025,-1.51815 -52.008279,-0.0693 -52.008283,-0.0694 -1.70185,-0.61127 c -3.438758,-1.23515 -6.276308,-3.97622 -7.632243,-7.37273 l -0.615185,-1.541 -0.06938,-57.81146 c -0.04873,-40.608526 0.01473,-58.222397 0.213271,-59.192444 0.943229,-4.608508 4.819605,-8.467787 9.543562,-9.501468 2.459335,-0.538144 125.194157,-0.512201 127.712187,0.02699 3.73554,0.799907 6.64135,3.131377 8.37977,6.723489 l 1.10336,2.279887 0.0698,37.826616 c 0.0384,20.80464 0.16858,37.92641 0.28926,38.04836 0.12069,0.12196 0.97087,0.3989 1.8893,0.61541 5.99153,1.41246 12.886,5.81495 16.94788,10.82212 15.48307,19.08636 6.0297,47.54667 -17.72301,53.35685 -2.1963,0.53724 -10.01335,0.92583 -11.81528,0.58735 z m 9.29828,-10.36509 c 11.57283,-2.36337 20.01801,-12.87433 19.38938,-24.13223 -0.98967,-17.72383 -20.49062,-28.57788 -35.8878,-19.97484 -14.05429,7.85271 -16.91398,25.71067 -5.93801,37.08121 3.4218,3.54481 9.59039,6.90071 12.84727,6.98931 0.37599,0.0102 0.91925,0.12561 1.20726,0.25641 0.65432,0.29715 6.61593,0.14078 8.3819,-0.21986 z M 147.5322,160.20868 c -0.0981,-0.0991 -0.17827,-1.1128 -0.17827,-2.25271 v -2.07257 h 6.01711 6.01711 l 0.0703,-6.15157 0.0703,-6.15156 2.16373,-0.0769 2.16373,-0.0769 -0.0691,8.41128 -0.0691,8.41128 -8.00371,0.0699 c -4.40204,0.0385 -8.08393,-0.0112 -8.18197,-0.11024 z m -19.29969,5.30986 c -1.18721,-3.15552 -1.66561,-12.45328 -0.82248,-15.98514 3.40376,-14.25847 14.33227,-24.70098 27.53677,-26.31221 0.79202,-0.0966 1.70513,-0.2415 2.02913,-0.3219 l 0.5891,-0.14618 V 99.101066 75.449018 l -65.390319,0.06667 -65.390325,0.06667 -0.07342,43.259382 c -0.05366,31.61852 0.0064,43.5551 0.223331,44.35835 0.282623,1.04667 1.495323,2.50788 2.337407,2.8164 0.216004,0.0791 22.62842,0.15329 49.805368,0.16478 l 49.412638,0.0209 z M 51.162598,152.04189 c -0.90278,-0.80567 -0.962336,-0.92926 -0.523647,-1.08665 3.635702,-1.30436 6.521976,-3.01421 8.968323,-5.3129 l 1.631361,-1.5329 -3.02322,-1.82325 c -3.386455,-2.04232 -3.289864,-1.92064 -2.29171,-2.88701 l 0.73151,-0.70822 2.978525,1.7436 2.978526,1.7436 0.487671,-0.62186 c 0.61485,-0.78404 2.703809,-5.14239 2.929465,-6.11197 l 0.16934,-0.7276 H 61.51105 56.823358 l -0.448042,0.69101 c -0.743516,1.14671 -4.329354,4.8234 -5.68496,5.829 l -1.269997,0.94209 -0.932665,-0.71888 c -0.512965,-0.39538 -0.834333,-0.80073 -0.71415,-0.90077 0.120183,-0.10003 0.895603,-0.69579 1.723155,-1.32389 2.937677,-2.22968 5.75554,-5.7384 7.189952,-8.95273 0.372812,-0.83543 0.699286,-1.54837 0.725496,-1.58433 0.02621,-0.036 0.594734,0.123 1.263385,0.35323 l 1.215731,0.41861 -0.71164,1.36656 c -0.391401,0.75161 -0.753053,1.4603 -0.80367,1.57487 -0.05062,0.11457 2.029758,0.19413 4.623057,0.1768 4.441477,-0.0297 4.958481,0.035 6.014501,0.75246 0.566283,0.38474 -1.96924,6.71739 -3.639423,9.08973 -0.690399,0.98065 -0.645664,1.10874 0.683766,1.95793 1.382388,0.88301 1.393377,0.93199 0.471134,2.09998 l -0.70707,0.89549 -1.257146,-0.93256 -1.257146,-0.93256 -1.759317,1.62909 c -2.181184,2.01973 -4.679125,3.71346 -7.240192,4.90922 -2.326025,1.08602 -1.909322,1.08804 -3.145519,-0.0152 z m 56.266982,-0.008 c -0.57128,-0.48468 -0.98255,-0.92677 -0.91392,-0.98243 0.0686,-0.0557 0.71388,-0.31484 1.43389,-0.57596 6.48628,-2.35232 12.06798,-8.15324 13.6993,-14.23736 l 0.26603,-0.99218 h -4.66017 -4.66017 l -1.01007,1.25677 c -1.35039,1.6802 -3.63891,3.90118 -5.02224,4.87403 l -1.1255,0.79151 -0.90363,-0.69649 c -1.11246,-0.85747 -1.117,-0.7914 0.10791,-1.5728 3.24217,-2.06827 8.41409,-8.64721 8.41409,-10.70313 0,-0.37495 -0.0663,-0.38075 1.39339,0.12185 1.44345,0.49702 1.42554,0.41176 0.43938,2.0918 -0.4271,0.7276 -0.77855,1.42094 -0.78101,1.54074 -0.002,0.11981 2.08685,0.19023 4.6429,0.15649 5.04839,-0.0666 6.62921,0.26348 6.21199,1.29721 -0.0988,0.24483 -0.44896,1.21905 -0.7781,2.16493 -2.6808,7.70403 -7.64718,13.16168 -14.40379,15.82857 l -1.31157,0.51769 z m -13.094829,-1.59218 c -0.864016,-1.08223 -2.534367,-2.93844 -3.711891,-4.12492 l -2.140952,-2.15723 -1.786395,1.66751 c -2.469953,2.30558 -5.6649,4.67713 -7.60699,5.64652 l -1.631425,0.81432 -0.790438,-0.76527 c -1.065602,-1.03167 -1.090494,-0.99085 1.430373,-2.34601 5.689708,-3.05866 10.862367,-8.4049 13.117312,-13.55748 l 0.639767,-1.46188 -6.876197,0.0496 -6.876197,0.0496 -0.0798,-1.22509 -0.0798,-1.22509 8.065407,0.009 c 7.429647,0.008 8.110725,0.047 8.64033,0.49383 l 0.574924,0.48502 -1.390316,2.87961 c -0.764673,1.58378 -1.94142,3.70646 -2.614992,4.71707 l -1.224677,1.83746 3.357809,3.4542 c 1.846794,1.89982 3.640828,3.783 3.986741,4.18485 l 0.628934,0.73063 -0.885286,0.92301 c -1.108481,1.15572 -0.895003,1.23961 -2.746238,-1.07915 z m -8.574707,-33.64925 -2.552775,-0.0865 v -8.97064 c 0,-8.765146 0.118331,-10.07431 0.810733,-8.969616 0.125697,0.200545 0.230345,4.144856 0.23255,8.765146 l 0.004,8.40052 h 6.661038 c 6.48556,0 7.70555,0.15008 6.660029,0.81928 -0.338585,0.21672 -6.056459,0.23695 -11.815584,0.0418 z m -32.138788,-7.06318 c 0,-6.62964 0.119108,-7.78683 0.737433,-7.16455 0.607414,0.61129 0.251553,14.16039 -0.371917,14.16039 -0.30359,0 -0.365516,-1.18524 -0.365516,-6.99584 z m 2.094585,0 c 0,-6.85214 0.138303,-8.02336 0.825982,-6.99483 0.230626,0.34494 0.239049,12.94037 0.0091,13.65994 -0.05812,0.1819 -0.269798,0.33073 -0.470395,0.33073 -0.302552,0 -0.364723,-1.19251 -0.364723,-6.99584 z m 16.75668,-1.96498 c 0,-8.610047 0.09593,-9.738152 0.759424,-8.930266 0.553736,0.674245 0.265748,17.730556 -0.301234,17.840796 -0.429119,0.0834 -0.45819,-0.48191 -0.45819,-8.91053 z m 2.094585,0.25121 c 0,-9.023848 0.05625,-9.783839 0.685134,-9.256411 0.294433,0.246934 0.362158,1.876921 0.362158,8.716361 0,8.59787 -0.0481,9.24966 -0.68257,9.24966 -0.304361,0 -0.364722,-1.44142 -0.364722,-8.70961 z m 28.980544,8.53874 c -0.39767,-0.40187 -0.20414,-17.47117 0.20195,-17.811747 0.62864,-0.52723 0.68571,0.352023 0.60762,9.361697 -0.0697,8.04122 -0.17071,9.09564 -0.80957,8.45005 z m 2.09459,0 c -0.27912,-0.28206 -0.20727,-17.367521 0.0749,-17.818583 0.68134,-1.089055 0.79811,0.347685 0.7305,8.988513 -0.0658,8.41182 -0.16316,9.47909 -0.80542,8.83007 z m 8.84102,-0.16187 c -0.0695,-0.18301 -0.0953,-4.2609 -0.0572,-9.06198 l 0.0691,-8.729236 1.57094,-0.07432 1.57094,-0.07431 2.49675,3.778486 c 1.37321,2.07816 3.78853,5.71557 5.36737,8.08314 l 2.87063,4.30465 0.13091,-7.98695 c 0.0971,-5.92623 0.21286,-8.01451 0.44853,-8.093766 0.55336,-0.18609 0.61595,0.923111 0.54104,9.588066 l -0.0732,8.46667 -1.57094,0.0664 -1.57094,0.0664 -1.70185,-2.57997 c -0.93602,-1.41898 -1.76094,-2.63949 -1.83317,-2.71225 -0.14746,-0.14856 -1.34103,-1.91707 -4.82132,-7.14375 l -2.37841,-3.57188 -0.1407,7.9375 c -0.0774,4.36563 -0.16576,7.96727 -0.19637,8.00365 -0.16014,0.19031 -0.61193,0.0235 -0.72209,-0.2666 z m 12.00929,-3.01401 c -0.94211,-1.40415 -3.2998,-4.94626 -5.2393,-7.87135 -3.9829,-6.006905 -4.1668,-6.244398 -4.83502,-6.244398 -0.68312,0 -0.60617,0.35689 0.38563,1.788648 0.47779,0.68973 2.73767,4.05203 5.02196,7.47177 2.2843,3.41974 4.33815,6.48186 4.56413,6.80471 0.24608,0.35156 0.69256,0.59033 1.1132,0.59531 0.69069,0.008 0.67393,-0.034 -1.0106,-2.54469 z m -39.23774,1.21256 c -0.406709,-0.665 0.500053,-0.78529 5.396999,-0.71596 4.315235,0.0611 5.086643,0.13221 5.086643,0.4689 0,0.50642 -10.178324,0.74629 -10.483642,0.24706 z m -1.891578,-8.51529 c 0.04428,-4.75975 0.164627,-7.474476 0.331356,-7.474476 0.166729,0 0.287078,2.714726 0.331357,7.474476 0.06108,6.56577 0.02079,7.47448 -0.331357,7.47448 -0.352151,0 -0.392436,-0.90871 -0.331356,-7.47448 z M 44.108349,101.2029 c -0.096,-0.097 -0.174548,-0.27561 -0.174548,-0.39688 0,-0.12126 5.301918,-0.22048 11.78204,-0.22048 10.298376,0 11.782041,0.05 11.782041,0.39687 0,0.41741 -22.980297,0.63404 -23.389533,0.22049 z m -0.174548,-2.337153 c 0,-0.355055 1.390481,-0.394188 11.847496,-0.333425 7.678366,0.04462 11.847496,0.161948 11.847496,0.333425 0,0.171477 -4.16913,0.288809 -11.847496,0.333425 -10.457015,0.06076 -11.847496,0.02163 -11.847496,-0.333425 z m 40.713495,-6.882122 c -0.864016,-0.637121 -1.836035,-1.349139 -2.160041,-1.582263 -0.324006,-0.233123 -0.589102,-0.537365 -0.589102,-0.676092 0,-0.52189 0.750082,-0.211956 2.594533,1.072062 l 1.902305,1.324293 2.205096,-1.498134 c 2.105649,-1.43057 2.699451,-1.628554 2.38271,-0.794439 -0.114344,0.301116 -4.491999,3.397909 -4.708116,3.330564 -0.03105,-0.0097 -0.763369,-0.53887 -1.627385,-1.175991 z M 84.12365,89.290998 c -2.877478,-1.997927 -3.205855,-3.069743 -0.392735,-1.28188 3.001004,1.907272 2.547804,1.870594 4.86252,0.393535 2.212586,-1.411887 2.468527,-1.509325 2.468527,-0.939777 0,0.204131 -0.677467,0.812783 -1.505483,1.352559 -0.828015,0.539777 -1.824718,1.206198 -2.214894,1.480936 -0.915427,0.644588 -0.781223,0.686517 -3.217935,-1.005373 z m 0.675255,-1.872376 c -1.708901,-1.198181 -1.820186,-1.442555 -0.877623,-1.927208 0.399308,-0.205318 1.090596,-0.643616 1.536197,-0.973996 1.029213,-0.763084 0.888554,-0.787525 2.713885,0.47157 1.801949,1.242966 1.796276,1.434446 -0.07648,2.581418 -1.704922,1.044184 -1.582177,1.049836 -3.295983,-0.151784 z m 2.828963,-0.610124 0.885988,-0.545837 -0.937553,-0.643799 c -1.142504,-0.784536 -1.050965,-0.783865 -2.169304,-0.01592 l -0.914365,0.627878 0.8628,0.55829 c 1.069742,0.692195 1.178844,0.693126 2.272434,0.01939 z M 157.56503,58.681331 c 0,-9.397742 -0.0387,-9.673111 -1.56667,-11.144812 l -0.8241,-0.79375 -62.231262,-0.07535 c -34.227196,-0.04144 -62.610775,-0.0069 -63.074622,0.0767 -1.101069,0.198514 -2.567222,1.614119 -2.879129,2.779868 -0.142823,0.5338 -0.196335,4.464914 -0.126915,9.32347 l 0.120029,8.400521 h 65.291337 65.291332 z m -51.24289,3.77945 c -2.62754,-1.700666 -2.62048,-5.489599 0.0135,-7.215478 3.54369,-2.321994 7.93576,1.809473 5.86029,5.512559 -1.21927,2.175423 -3.92967,2.961222 -5.87375,1.702919 z m 16.39991,-0.04774 c -2.93041,-1.995628 -2.75761,-5.767786 0.33736,-7.364046 3.7196,-1.918424 7.58128,2.481462 5.33454,6.078038 -1.16813,1.869958 -3.90365,2.490191 -5.6719,1.286008 z m 16.32798,0.04774 c -2.62754,-1.700666 -2.62048,-5.489599 0.0135,-7.215478 3.54369,-2.321994 7.93576,1.809473 5.86029,5.512559 -1.21927,2.175423 -3.92967,2.961222 -5.87375,1.702919 z"
         id="path2423" /><path
         style="fill:#356f8d"
         d="m 156.77957,188.80816 c -0.36001,-0.0623 -1.47931,-0.24303 -2.48732,-0.40152 -1.95112,-0.30677 -4.41736,-0.94209 -5.16746,-1.33117 -0.25005,-0.1297 -0.60575,-0.23582 -0.79046,-0.23582 -0.48049,0 -4.97878,-2.2713 -6.43093,-3.24715 -3.1966,-2.1481 -6.16911,-5.00121 -8.53513,-8.19228 l -0.73284,-0.98838 -52.401876,-0.07 -52.401875,-0.07 -2.048436,-0.98399 c -3.584215,-1.72171 -5.900085,-4.69233 -6.835424,-8.76795 -0.62608,-2.72806 -0.625634,-113.501258 4.68e-4,-116.229417 1.040483,-4.533773 3.618144,-7.571226 7.836099,-9.233868 2.05303,-0.809267 128.588654,-0.811259 130.649734,-0.0021 2.93469,1.152192 5.14311,3.033153 6.54139,5.571443 1.66576,3.023871 1.55484,0.327337 1.70195,41.374402 l 0.135,37.67024 2.2255,0.60022 c 9.17135,2.47352 16.42838,8.48586 20.75193,17.19264 3.78502,7.6223 4.36106,16.79702 1.58646,25.26771 -2.68967,8.21142 -9.10976,15.35846 -17.2681,19.22338 -1.0274,0.48673 -2.03477,0.88496 -2.23858,0.88496 -0.20382,0 -0.4825,0.10024 -0.6193,0.22275 -0.2587,0.23169 -2.60892,0.86284 -5.09246,1.36759 -1.52522,0.30998 -7.2739,0.56946 -8.37834,0.37817 z m 7.53845,-8.46027 c 20.15784,-4.05873 26.80669,-29.80757 11.18245,-43.30599 -4.56512,-3.94399 -9.31382,-5.63246 -15.84085,-5.63246 -5.18541,0 -6.63992,0.32121 -10.86566,2.39956 -12.26152,6.03059 -17.2277,20.96201 -11.07412,33.29569 4.93721,9.89568 15.9618,15.38481 26.59818,13.2432 z m -16.96409,-22.21066 v -1.9795 l 6.08739,-0.071 6.08739,-0.071 0.0703,-6.15156 0.0703,-6.15157 h 1.95885 1.95885 v 8.20209 8.20208 h -8.11652 -8.11652 z m -18.85126,7.98065 c 0,-0.19187 -0.17236,-0.93601 -0.38303,-1.65365 -2.12598,-7.24216 -1.11584,-16.6364 2.53953,-23.61743 3.74317,-7.14873 9.40372,-12.23528 17.50619,-15.73104 1.24302,-0.53629 5.99484,-1.68198 7.89419,-1.90333 l 1.50548,-0.17544 V 99.243524 75.450061 H 92.109255 26.653475 v 44.013429 44.01343 l 0.787028,1.09791 c 1.437547,2.0054 -2.965339,1.84635 51.773963,1.87032 40.632484,0.0178 49.288204,-0.0397 49.288204,-0.32727 z m -21.03035,-14.11247 c -0.82705,-0.76593 -0.90195,-0.92208 -0.50821,-1.0595 6.19094,-2.16071 10.68376,-5.94442 13.29444,-11.19615 0.59295,-1.19279 1.69854,-4.06524 1.69854,-4.41299 0,-0.05 -2.08368,-0.0909 -4.63039,-0.0909 h -4.63039 l -2.22241,2.40679 c -1.22233,1.32374 -2.85151,2.87644 -3.62041,3.45045 l -1.398,1.04365 -0.91301,-0.70372 c -1.11609,-0.86026 -1.16937,-0.65689 0.46156,-1.76191 2.90809,-1.97033 6.05642,-5.74464 7.52842,-9.0253 l 0.7765,-1.73059 1.18219,0.40706 c 1.41377,0.4868 1.39183,0.30369 0.2685,2.24055 l -0.91368,1.5754 4.83043,-0.0308 c 4.12891,-0.0263 4.9408,0.0351 5.59039,0.42284 l 0.75995,0.45365 -0.87787,2.48207 c -2.83301,8.00998 -7.34097,12.90247 -14.77472,16.03504 -0.91825,0.38695 -0.94594,0.37958 -1.90183,-0.50566 z m -56.335901,-0.0882 -0.750045,-0.79113 0.897427,-0.31175 c 2.879491,-1.00029 6.860009,-3.53908 8.947571,-5.70678 l 0.980919,-1.01857 -2.551858,-1.55872 c -3.848219,-2.35055 -3.536651,-2.01711 -2.788065,-2.98371 l 0.645451,-0.83343 0.842671,0.47687 c 0.463469,0.26228 1.831773,1.05139 3.040676,1.75358 l 2.198004,1.27672 0.522883,-0.64295 c 0.627455,-0.77154 2.716437,-5.10791 2.954509,-6.13306 l 0.168971,-0.7276 h -4.710124 -4.710124 l -0.740115,0.99219 c -1.231106,1.6504 -3.553636,4.02958 -5.14631,5.27183 l -1.504192,1.17323 -0.916147,-0.70614 -0.916147,-0.70615 1.242135,-0.93398 c 3.5651,-2.68066 7.150399,-7.11014 8.263462,-10.20913 l 0.30972,-0.86232 1.238183,0.35821 1.238183,0.35822 -0.779993,1.39664 c -1.219947,2.18442 -1.410645,2.08938 3.99828,1.99281 5.07313,-0.0906 6.435242,0.14752 6.074388,1.06182 -0.09028,0.22874 -0.463011,1.24933 -0.828291,2.26798 -0.801399,2.23483 -1.97029,4.63075 -2.997644,6.14438 l -0.758353,1.11731 1.312103,0.86707 c 1.547837,1.02285 1.517447,0.91447 0.575965,2.0541 l -0.745547,0.90246 -1.138795,-0.84631 c -1.440645,-1.07063 -1.381498,-1.07861 -2.829198,0.38171 -1.811402,1.82719 -4.082246,3.45188 -6.645001,4.7542 -2.708531,1.3764 -3.01488,1.4048 -3.995552,0.3704 z m 25.456156,-0.65458 -0.723674,-0.91653 1.427463,-0.68242 c 6.011271,-2.87377 11.828359,-8.82785 14.150712,-14.48398 l 0.407383,-0.99219 h -6.810915 -6.810915 l -4.1e-5,-1.12448 -4.2e-5,-1.12448 7.994538,0.0412 c 7.921492,0.0408 8.762225,0.13109 8.762225,0.94068 0,0.53832 -2.367973,5.19584 -3.641417,7.16223 -0.733272,1.13229 -1.333222,2.11331 -1.333222,2.18005 0,0.0667 0.95417,1.04255 2.120377,2.16849 1.166207,1.12593 2.950631,2.97784 3.965386,4.11536 l 1.845008,2.0682 -0.741581,0.78221 c -0.971032,1.02422 -1.175618,0.99277 -2.226947,-0.34228 -1.086209,-1.37935 -6.28938,-6.81302 -6.524004,-6.81302 -0.09335,0 -0.752157,0.5516 -1.464021,1.22579 -2.97759,2.81997 -8.420699,6.71173 -9.387151,6.7117 -0.157019,0 -0.611142,-0.41245 -1.009162,-0.91654 z M 53.739244,116.38956 c -0.304013,-0.8006 0.01345,-13.51148 0.340203,-13.62141 0.256348,-0.0862 0.327279,1.41427 0.327279,6.92341 0,6.48113 -0.155875,8.04528 -0.667482,6.698 z m 2.10418,-0.25981 c -0.307294,-1.26849 -0.01092,-13.24672 0.330608,-13.36161 0.256347,-0.0862 0.327278,1.41428 0.327278,6.92342 0,6.47788 -0.192323,8.35999 -0.657886,6.43819 z m 16.770181,-3.43958 c -0.236615,-5.42854 -0.08378,-13.824483 0.25165,-13.824483 0.168016,0 0.286523,3.199393 0.330762,8.929683 0.07176,9.2949 -0.266654,12.13904 -0.582412,4.8948 z m 2.215324,-4.96094 c 0,-5.95067 0.08923,-8.971337 0.261823,-8.863543 0.16596,0.10365 0.261823,3.348933 0.261823,8.863543 0,5.51461 -0.09586,8.75989 -0.261823,8.86354 -0.172595,0.10779 -0.261823,-2.91287 -0.261823,-8.86354 z m 8.640163,0 c 0,-5.73775 0.09353,-8.995835 0.258245,-8.995835 0.163117,0 0.283675,3.191935 0.327279,8.665105 l 0.06903,8.6651 6.741945,0.0706 c 4.195514,0.0439 6.741945,0.16886 6.741945,0.33073 0,0.16401 -2.611887,0.26011 -7.069224,0.26011 h -7.069224 z m 20.160378,0 c 0,-5.82083 0.0924,-8.995835 0.26183,-8.995835 0.16941,0 0.26182,3.175005 0.26182,8.995835 0,5.82083 -0.0924,8.99583 -0.26182,8.99583 -0.16942,0 -0.26183,-3.175 -0.26183,-8.99583 z m 2.09459,0 c 0,-5.82083 0.0924,-8.995835 0.26182,-8.995835 0.16942,0 0.26182,3.175005 0.26182,8.995835 0,5.82083 -0.0924,8.99583 -0.26182,8.99583 -0.16941,0 -0.26182,-3.175 -0.26182,-8.99583 z m 8.90198,0 v -8.995835 h 1.52443 c 1.4717,0 1.54687,0.03432 2.17312,0.992188 4.08199,6.243607 10.0224,15.033957 10.2066,15.103297 0.13465,0.0507 0.2343,-3.3535 0.2343,-8.00364 0,-5.21818 0.093,-8.091845 0.26182,-8.091845 0.16942,0 0.26183,3.175005 0.26183,8.995835 v 8.99583 h -1.4192 -1.41919 l -1.83438,-2.71198 c -1.00891,-1.49159 -3.45354,-5.12299 -5.4325,-8.06979 -1.97896,-2.9468 -3.696,-5.35781 -3.81564,-5.35781 -0.11965,0 -0.21754,3.63141 -0.21754,8.06979 0,5.20347 -0.093,8.06979 -0.26182,8.06979 -0.16942,0 -0.26183,-3.175 -0.26183,-8.99583 z m 13.61383,8.26823 c -0.001,-0.26952 -0.28656,-0.70977 -5.95674,-9.19427 -4.59193,-6.871086 -5.01113,-7.414349 -5.78039,-7.491246 -0.45617,-0.0456 -0.8294,-0.01133 -0.8294,0.07615 0,0.08748 1.61303,2.565576 3.58452,5.506866 1.9715,2.9413 4.33996,6.4789 5.26326,7.86135 0.9233,1.38245 1.86167,2.7219 2.08525,2.97656 0.39889,0.45434 1.63542,0.65462 1.6335,0.26459 z m -40.974343,-1.65365 c 0.09887,-0.16166 2.13579,-0.26458 5.236462,-0.26458 3.100673,0 5.137592,0.10292 5.236463,0.26458 0.105878,0.17312 -1.704282,0.26459 -5.236463,0.26459 -3.53218,0 -5.34234,-0.0915 -5.236462,-0.26459 z m -1.744965,-2.57969 c -0.164253,-3.3412 0.07635,-13.030725 0.323564,-13.030725 0.143924,0 0.243197,3.024095 0.243197,7.408335 0,4.30176 -0.100423,7.40833 -0.239482,7.40833 -0.131716,0 -0.278991,-0.80367 -0.327279,-1.78594 z M 44.195624,100.85006 c 0,-0.17237 4.00947,-0.26458 11.504765,-0.26458 7.387418,0 11.562676,0.0947 11.666581,0.26458 0.106952,0.17488 -3.793716,0.26459 -11.504765,0.26459 -7.603172,0 -11.666581,-0.0922 -11.666581,-0.26459 z m 0,-1.984373 c 0,-0.355064 1.354654,-0.394278 11.520307,-0.333481 7.460203,0.04462 11.520307,0.162145 11.520307,0.333481 0,0.171336 -4.060104,0.288865 -11.520307,0.333481 -10.165653,0.0608 -11.520307,0.02158 -11.520307,-0.333481 z m 39.928026,-7.43394 c -1.956383,-1.342611 -2.595613,-1.958769 -2.032113,-1.958769 0.130361,0 1.092168,0.595313 2.137349,1.322917 2.303169,1.603355 1.99613,1.600008 4.292125,0.04679 2.550123,-1.725131 2.540951,-1.720414 2.540951,-1.306952 0,0.320256 -3.735912,2.990046 -4.527393,3.235404 -0.173984,0.05394 -1.258898,-0.548791 -2.410919,-1.33939 z m -0.06546,-2.3608 c -1.188023,-0.792319 -2.160041,-1.573088 -2.160041,-1.735041 0,-0.307823 1.905136,0.722987 3.297503,1.784176 1.083927,0.826113 1.141756,0.814784 3.579531,-0.701251 2.148429,-1.336093 3.070255,-1.547473 1.632218,-0.374276 -0.900542,0.73469 -3.746137,2.491648 -4.011568,2.476865 -0.09768,-0.0054 -1.149621,-0.658153 -2.337643,-1.450473 z m 0.841055,-1.757048 c -0.858588,-0.596855 -1.592188,-1.110974 -1.630223,-1.142488 -0.129358,-0.107177 2.876184,-1.990104 3.175269,-1.989257 0.163672,4.63e-4 0.976465,0.456969 1.806206,1.014457 1.708997,1.148245 1.703197,1.17244 -0.602109,2.512077 l -1.188074,0.690402 z m 2.613135,-0.248305 c 1.148091,-0.684531 1.159149,-0.899619 0.08042,-1.564266 -1.071016,-0.659895 -1.157567,-0.656298 -2.393065,0.09946 l -1.018494,0.623016 1.149405,0.696042 c 1.373718,0.831878 1.065493,0.811287 2.181732,0.145747 z m 70.05265,-26.714177 c 0,-11.289055 -0.008,-11.37505 -1.14546,-12.639563 -1.30565,-1.451211 2.71067,-1.36596 -64.352721,-1.36596 -61.544369,0 -62.038591,0.0042 -63.058484,0.529949 -0.565372,0.291472 -1.326511,0.973954 -1.69142,1.516628 l -0.66347,0.986678 v 10.918789 10.91879 h 65.45578 65.455775 z m -50.80258,2.067915 c -3.72667,-1.900815 -2.4604,-7.606771 1.6881,-7.606771 4.331,0 5.56915,5.885309 1.61949,7.697937 -1.39702,0.641139 -1.89898,0.627304 -3.30759,-0.09117 z m 16.63467,0.199912 c -2.13553,-0.95765 -3.07363,-3.435418 -2.09208,-5.525696 1.48637,-3.165303 6.06959,-2.870955 7.33255,0.470917 1.19194,3.153957 -2.19472,6.42061 -5.24047,5.054779 z m 16.09322,-0.199912 c -3.72667,-1.900815 -2.4604,-7.606771 1.6881,-7.606771 4.331,0 5.56915,5.885309 1.61949,7.697937 -1.39702,0.641139 -1.89898,0.627304 -3.30759,-0.09117 z"
         id="path2422" /><path
         style="fill:#024262"
         d="m 156.12501,188.53211 c -1.72803,-0.20151 -3.43643,-0.47649 -3.79644,-0.61105 -0.36,-0.13456 -1.00802,-0.31948 -1.44002,-0.41095 -5.43719,-1.15113 -13.04886,-6.37078 -16.98985,-11.65067 l -0.98744,-1.32292 -52.27797,-0.13262 -52.277965,-0.13262 -1.369741,-0.57038 c -3.74665,-1.56019 -6.156877,-3.99657 -7.549125,-7.63104 -0.795377,-2.07634 -0.795377,-117.250752 0,-119.327091 1.656314,-4.323822 5.23485,-7.375006 9.472083,-8.076228 2.106776,-0.348652 124.306998,-0.345891 126.430998,0.0029 3.5842,0.588503 7.20042,3.302767 8.84974,6.642433 1.51869,3.075168 1.49218,2.32793 1.49223,42.060608 l 4e-5,36.396328 1.37457,0.35146 c 8.46907,2.16538 16.60113,8.1219 20.24627,14.82983 0.27677,0.50933 0.56213,0.98558 0.63413,1.05834 0.34531,0.34895 1.64379,3.35217 2.45951,5.68854 2.47092,7.0772 2.05325,16.4823 -1.03575,23.32332 -0.20706,0.45855 -0.37647,0.90294 -0.37647,0.98753 0,0.0846 -0.47128,0.93189 -1.04729,1.8829 -0.57601,0.95101 -1.0473,1.79559 -1.0473,1.87684 0,0.0813 -0.54775,0.88282 -1.21722,1.78128 -2.95774,3.96938 -7.70771,7.88712 -12.16507,10.03364 -1.68986,0.81379 -2.79476,1.21568 -6.38535,2.32255 -0.43201,0.13317 -1.96367,0.36694 -3.4037,0.51948 -1.44003,0.15254 -3.0306,0.3216 -3.53461,0.37569 -0.50401,0.0541 -2.33023,-0.0665 -4.05826,-0.26806 z m 7.65457,-7.80367 c 5.17511,-1.20467 8.45827,-2.71833 11.43639,-5.27262 0.41984,-0.36009 1.15254,-0.99121 1.62822,-1.40247 2.88616,-2.49534 5.93796,-8.03669 7.04636,-12.79452 0.52263,-2.24341 0.42374,-9.86422 -0.14872,-11.46085 -1.66019,-4.63038 -3.06551,-7.61621 -3.71514,-7.8934 -0.11368,-0.0485 -0.20669,-0.19643 -0.20669,-0.32872 0,-0.65795 -3.08285,-3.89368 -5.29632,-5.55896 -4.70626,-3.54072 -8.67112,-4.82875 -14.86406,-4.82875 -7.37318,0 -12.65246,2.18894 -17.68156,7.33127 -2.7943,2.8572 -6.14434,8.67916 -6.14434,10.67808 0,0.27206 -0.14728,0.64339 -0.32728,0.82519 -0.47206,0.47676 -0.45516,10.31771 0.0205,11.94612 1.78946,6.126 4.81313,10.71351 9.25495,14.04165 2.99952,2.24745 7.89686,4.47157 9.87173,4.48324 0.37725,0.002 0.86264,0.11947 1.07864,0.26053 0.53781,0.35122 6.50993,0.33208 8.04731,-0.0258 z m -16.16382,-22.59121 v -1.9795 l 6.08738,-0.071 6.08739,-0.071 0.0703,-6.15156 0.0703,-6.15157 h 1.82794 1.82794 v 8.20209 8.20208 h -7.98561 -7.9856 z m -18.85127,7.84443 c 0,-0.26679 -0.0884,-0.574 -0.19637,-0.68268 -0.3211,-0.32315 -0.84889,-3.25981 -1.15133,-6.40606 -0.36152,-3.76095 0.20996,-10.19263 1.0785,-12.13765 0.12996,-0.29104 0.31312,-0.82682 0.40703,-1.19062 1.71662,-6.65026 8.96832,-15.23163 15.73351,-18.6184 2.19989,-1.1013 3.72314,-1.75452 4.0914,-1.75452 0.19511,0 0.46667,-0.10652 0.60347,-0.23671 0.32902,-0.31311 2.24917,-0.75864 5.6161,-1.30311 l 2.74915,-0.44456 V 99.262562 75.31777 L 92.172454,75.2511 26.648961,75.18443 l 0.06771,44.55505 c 0.06707,44.13122 0.07269,44.56072 0.591359,45.14987 1.514737,1.72058 -3.257231,1.57529 51.775522,1.57638 48.001268,9.6e-4 49.680938,-0.0154 49.680938,-0.48408 z M 51.203523,151.93353 c -0.79943,-0.72446 -0.82099,-0.78743 -0.33141,-0.9679 3.410497,-1.25717 6.086807,-2.80433 8.353802,-4.82931 2.346007,-2.09556 2.399927,-1.88128 -0.990432,-3.93598 l -2.985702,-1.80946 0.613206,-0.72041 c 0.337264,-0.39622 0.707223,-0.71952 0.822132,-0.71844 0.198338,0.002 3.45958,1.83342 5.217917,2.93044 l 0.81982,0.51148 1.049237,-1.78809 c 1.14174,-1.94573 2.416673,-4.839 2.416673,-5.48428 0,-0.34829 -0.652759,-0.40485 -4.671902,-0.40485 h -4.671902 l -1.80822,2.16575 c -0.994521,1.19117 -2.669424,2.85747 -3.722006,3.7029 l -1.913785,1.53714 -0.871953,-0.70309 -0.871952,-0.70308 1.607533,-1.19421 c 3.131414,-2.32628 6.300071,-6.19256 7.527179,-9.18439 0.630272,-1.53668 0.746217,-1.60254 2.02689,-1.15139 0.999965,0.35227 0.999067,0.29822 0.03433,2.06691 -0.4294,0.78724 -0.780727,1.48108 -0.780727,1.54188 0,0.0608 2.209133,0.0801 4.909184,0.0429 6.52228,-0.0899 6.532733,-0.0843 5.456947,2.90498 -0.984041,2.73436 -1.564799,3.99015 -2.750772,5.94812 -0.604678,0.99828 -1.063292,1.84219 -1.019142,1.87535 0.04415,0.0332 0.642599,0.44435 1.329887,0.91377 l 1.249615,0.85348 -0.541792,0.76889 c -0.803542,1.14037 -0.90597,1.14668 -2.291038,0.14112 l -1.273758,-0.92475 -1.421817,1.45691 c -1.760941,1.80442 -4.561555,3.78301 -7.083407,5.00431 -2.318622,1.12289 -2.360616,1.12476 -3.432633,0.15328 z m 56.224997,-0.0161 c -0.41245,-0.43505 -0.69959,-0.8288 -0.63808,-0.87501 0.0615,-0.0462 0.93878,-0.40437 1.9495,-0.7959 5.71804,-2.21501 10.21785,-6.76437 12.52654,-12.66448 0.37984,-0.9707 0.69061,-1.89344 0.69061,-2.05052 0,-0.19412 -1.55147,-0.2856 -4.84373,-0.2856 -2.66405,0 -4.84372,0.0967 -4.84372,0.21499 0,0.40428 -3.71648,4.29162 -5.22285,5.46296 l -1.50399,1.16949 -0.93641,-0.67329 -0.93641,-0.67329 2.10063,-1.59956 c 2.63469,-2.00622 4.86881,-4.70162 6.30394,-7.60547 0.61131,-1.23693 1.13754,-2.29515 1.16941,-2.35161 0.0654,-0.11592 2.42938,0.52084 2.42938,0.65439 0,0.0473 -0.40211,0.77601 -0.89358,1.61926 l -0.89358,1.53317 4.75547,0.067 c 3.78884,0.0534 4.91843,0.15429 5.55717,0.4964 l 0.80169,0.42938 -0.70841,2.01715 c -2.7717,7.89213 -6.88901,12.73155 -13.43019,15.78562 -2.38423,1.1132 -2.49268,1.11714 -3.43339,0.12491 z m -30.720207,-0.61728 -0.804729,-0.84069 2.160595,-1.14177 c 4.379054,-2.31411 8.769821,-6.26726 11.258727,-10.1366 1.216387,-1.89104 2.524526,-4.42135 2.524526,-4.88315 0,-0.0607 -3.063331,-0.11036 -6.807401,-0.11036 h -6.807402 l -1.8e-5,-1.12448 -1.9e-5,-1.12448 8.023279,0.0475 c 9.909911,0.0587 9.363938,-0.19949 7.545151,3.5677 -0.714468,1.47986 -1.908345,3.61698 -2.653059,4.74916 l -1.354027,2.05851 1.693504,1.50249 c 0.931428,0.82637 2.769014,2.69868 4.083525,4.1607 l 2.39002,2.65821 -0.889668,0.75055 c -1.083887,0.91441 -0.875178,1.00898 -2.809776,-1.27313 -0.879641,-1.03766 -2.563621,-2.85456 -3.742177,-4.03757 l -2.142831,-2.15092 -2.01021,1.94079 c -2.132968,2.05931 -3.968982,3.49696 -6.273333,4.9122 -2.300655,1.41296 -2.465053,1.43605 -3.384677,0.47533 z M 53.88094,116.30614 c -0.0012,-0.27892 -0.07792,-3.13587 -0.170548,-6.34879 -0.176127,-6.10945 0.105465,-9.35598 0.457172,-5.27083 0.172871,2.00794 0.02106,11.7825 -0.186634,12.01649 -0.05382,0.0606 -0.09881,-0.11796 -0.09999,-0.39687 z m 18.857413,-8.52638 c -0.0026,-5.98537 0.08518,-9.021892 0.257814,-8.914073 0.348145,0.217434 0.348145,17.050393 0,17.594793 -0.166598,0.26051 -0.255182,-2.72217 -0.257814,-8.68072 z m 2.090576,0.0818 c 0,-4.92345 0.0608,-8.890295 0.135109,-8.815202 0.176124,0.17798 0.175442,17.453112 -6.96e-4,17.631112 -0.07393,0.0747 -0.134413,-3.89245 -0.134413,-8.81591 z m 8.640163,0.0156 c 0,-5.61322 0.09572,-8.907713 0.261823,-9.011453 0.172532,-0.107755 0.261823,2.819473 0.261823,8.583343 v 8.74687 h 6.661038 c 4.158266,0 6.721837,0.0994 6.822853,0.26458 0.106354,0.1739 -2.266415,0.26458 -6.922861,0.26458 h -7.084676 z m 22.258978,0.0505 c -0.003,-5.77944 0.0883,-8.929691 0.25781,-8.929691 0.34942,0 0.34942,16.916111 0,17.462501 -0.16664,0.26058 -0.25518,-2.66976 -0.25781,-8.53281 z m 20.26089,7.81873 c -0.40041,-0.55314 -0.98213,-1.3629 -1.2927,-1.79946 -0.75665,-1.06358 -7.07303,-10.48759 -8.20176,-12.23698 -0.49293,-0.76399 -0.99717,-1.38906 -1.12053,-1.38906 -0.12335,0 -0.22428,3.6314 -0.22428,8.06979 0,5.27503 -0.0919,8.06979 -0.26535,8.06979 -0.17532,0 -0.24195,-2.98499 -0.19637,-8.7974 l 0.069,-8.797393 h 1.41211 1.4121 l 5.3953,8.123893 c 2.96741,4.46814 5.48366,8.12931 5.59166,8.13594 0.10801,0.007 0.19637,-3.61936 0.19637,-8.05775 0,-5.27503 0.0919,-8.069791 0.26535,-8.069791 0.17532,0 0.24195,2.984981 0.19637,8.797391 l -0.069,8.7974 -1.22013,0.0797 c -1.14711,0.0749 -1.26369,0.0195 -1.94814,-0.92604 z m 2.32863,0.28375 c 0.0902,-0.0912 -0.9676,-1.83467 -2.35069,-3.87446 -1.38309,-2.03979 -3.85056,-5.74206 -5.48328,-8.22726 -2.98501,-4.543577 -3.39506,-4.971718 -4.4899,-4.688015 -0.58006,0.150308 -0.56226,0.203974 0.66549,2.006525 0.69383,1.01864 3.12869,4.65005 5.41082,8.06979 2.28213,3.41974 4.26513,6.36654 4.40666,6.54844 0.26613,0.34203 1.55169,0.45724 1.8409,0.16498 z M 55.977664,109.7577 c 0,-4.8418 0.08429,-6.79097 0.293664,-6.79097 0.32412,0 0.210607,13.07236 -0.116382,13.40279 -0.09751,0.0985 -0.177282,-2.87678 -0.177282,-6.61182 z m 47.651806,-2.02847 c 0,-5.64445 0.0926,-8.731251 0.26183,-8.731251 0.16925,0 0.26182,3.086801 0.26182,8.731251 0,5.64444 -0.0926,8.73125 -0.26182,8.73125 -0.16926,0 -0.26183,-3.08681 -0.26183,-8.73125 z m -16.233031,6.61458 c 0,-0.30742 6.341679,-0.31478 8.771074,-0.0102 1.110692,0.13926 0.05596,0.20836 -3.600068,0.23587 -3.298451,0.0248 -5.171006,-0.0569 -5.171006,-0.22569 z m -1.832762,-8.05417 c 0,-4.68472 0.09361,-7.291661 0.261823,-7.291661 0.16807,0 0.261823,2.552431 0.261823,7.128131 0,4.46669 -0.09776,7.18919 -0.261823,7.29166 -0.17213,0.1075 -0.261823,-2.3344 -0.261823,-7.12813 z M 44.71927,100.87102 c 0.939659,-0.27402 19.202844,-0.31725 21.076761,-0.0499 1.006004,0.14353 -2.618998,0.22712 -10.08019,0.23245 -6.408121,0.005 -11.356578,-0.0776 -10.996571,-0.18256 z m 1.963673,-1.887946 c -1.440027,-0.08096 2.614959,-0.170255 9.01108,-0.198438 6.39612,-0.02818 11.580218,-0.004 11.520217,0.05363 -0.184466,0.177333 -17.749178,0.301214 -20.531297,0.144804 z m 37.365975,-7.71351 c -1.049121,-0.735277 -1.845483,-1.39953 -1.769694,-1.476118 0.07579,-0.07659 1.030148,0.467387 2.120797,1.208834 l 1.982999,1.348086 1.98033,-1.306402 c 1.780798,-1.174773 2.436789,-1.500069 2.436789,-1.208365 0,0.222338 -4.162143,2.810736 -4.4889,2.791605 -0.195155,-0.01143 -1.213199,-0.622364 -2.262321,-1.35764 z m 0.128966,-2.240681 c -1.261296,-0.815378 -2.233452,-1.54295 -2.160347,-1.616825 0.0731,-0.07388 1.085939,0.478672 2.250742,1.227884 2.518638,1.620011 1.990741,1.572567 3.829659,0.344186 1.932443,-1.290856 2.702807,-1.701355 2.699911,-1.438688 -0.0019,0.176002 -1.077412,0.921662 -3.7986,2.633695 -0.465379,0.292794 -0.800466,0.156181 -2.821365,-1.150252 z m 0.777702,-1.791032 c -0.694456,-0.485679 -1.262201,-0.967794 -1.261655,-1.071367 8.55e-4,-0.16208 2.556332,-1.985172 2.782669,-1.985172 0.08007,0 2.798876,1.818514 2.970888,1.987125 0.132791,0.130167 -2.660159,1.983738 -2.963935,1.967047 -0.145925,-0.008 -0.83351,-0.411953 -1.527967,-0.897633 z m 2.818621,-0.172257 c 1.178266,-0.702522 1.166949,-0.875264 -0.110742,-1.690338 -1.266644,-0.808027 -1.099491,-0.80846 -2.376469,0.0062 -1.146491,0.731378 -1.13171,0.966323 0.108881,1.730769 1.035843,0.638281 1.236254,0.634355 2.37833,-0.04659 z m 69.990023,-26.705562 0.0683,-10.988987 -0.67802,-1.056688 c -1.39546,-2.174804 5.41268,-1.968463 -64.948544,-1.968463 -68.172037,0 -63.324324,-0.108617 -64.767002,1.451158 l -0.654558,0.707686 -0.07345,11.488808 -0.07345,11.488807 65.529235,-0.06667 65.529239,-0.06667 z m -50.41469,2.212972 c -2.48366,-0.526607 -3.45709,-4.559053 -1.53619,-6.363698 2.34112,-2.199435 5.32578,-1.35395 6.39223,1.810769 0.85105,2.525542 -1.96508,5.165894 -4.85604,4.552929 z m 16.3094,0.0022 c -0.85216,-0.227948 -2.12703,-1.632308 -2.48959,-2.742483 -0.9215,-2.821602 2.08688,-5.674004 4.85682,-4.605003 4.67836,1.80552 2.47549,8.642879 -2.36723,7.347486 z m 16.41849,-0.0022 c -2.48366,-0.526607 -3.45709,-4.559053 -1.53619,-6.363698 2.34112,-2.199435 5.32578,-1.35395 6.39223,1.810769 0.85105,2.525542 -1.96508,5.165894 -4.85604,4.552929 z"
         id="path2421" /></g></g></svg>
